<svg width="50" height="40" viewBox="0 0 50 40" fill="none" xmlns="http://www.w3.org/2000/svg">
<path d="M41.9188 33.3938C41.9188 33.9844 41.5204 34.4094 40.947 34.4094C40.3563 34.4094 39.9751 33.9578 39.9751 33.3938C39.9751 32.8297 40.3563 32.3781 40.947 32.3781C41.5204 32.3781 41.9188 32.8297 41.9188 33.3938ZM14.9392 32.3781C14.322 32.3781 13.9673 32.8297 13.9673 33.3938C13.9673 33.9578 14.3235 34.4094 14.9392 34.4094C15.5032 34.4094 15.8845 33.9844 15.8845 33.3938C15.8751 32.8297 15.5032 32.3781 14.9392 32.3781ZM25.1392 32.3531C24.6704 32.3531 24.3829 32.6563 24.3142 33.1078H25.972C25.8938 32.6125 25.5907 32.3531 25.1392 32.3531ZM34.497 32.3781C33.9063 32.3781 33.5517 32.8297 33.5517 33.3938C33.5517 33.9578 33.9079 34.4094 34.497 34.4094C35.0876 34.4094 35.4689 33.9844 35.4689 33.3938C35.4689 32.8297 35.086 32.3781 34.497 32.3781ZM43.6892 34.6438C43.6892 34.6703 43.7157 34.6875 43.7157 34.7391C43.7157 34.7656 43.6892 34.7828 43.6892 34.8344C43.6626 34.861 43.6626 34.8781 43.6454 34.9031C43.6189 34.9297 43.6017 34.9469 43.5501 34.9469C43.5235 34.9735 43.5064 34.9735 43.4548 34.9735C43.4282 34.9735 43.411 34.9735 43.3595 34.9469C43.3329 34.9469 43.3157 34.9203 43.2907 34.9031C43.2642 34.8766 43.247 34.8594 43.247 34.8344C43.2204 34.7906 43.2204 34.7656 43.2204 34.7391C43.2204 34.6953 43.2204 34.6703 43.247 34.6438C43.247 34.6 43.2735 34.575 43.2907 34.5485C43.3173 34.5219 43.3345 34.5219 43.3595 34.5047C43.4032 34.4781 43.4282 34.4781 43.4548 34.4781C43.4985 34.4781 43.5235 34.4781 43.5501 34.5047C43.5938 34.5297 43.6189 34.5297 43.6454 34.5485C43.672 34.5672 43.6626 34.6 43.6892 34.6438ZM43.4985 34.7656C43.5423 34.7656 43.5423 34.7391 43.5673 34.7391C43.5938 34.7125 43.5938 34.6953 43.5938 34.6703C43.5938 34.6453 43.5938 34.6266 43.5673 34.6016C43.5423 34.6016 43.5235 34.575 43.472 34.575H43.3329V34.8781H43.4017V34.7563H43.4282L43.5235 34.8781H43.5923L43.4985 34.7656ZM50.0001 4.8094V35.3656C49.9997 36.4707 49.5605 37.5304 48.7791 38.3118C47.9977 39.0932 46.938 39.5324 45.8329 39.5328H4.16572C3.06064 39.5324 2.00094 39.0932 1.21953 38.3118C0.438124 37.5304 -0.00105072 36.4707 -0.00146484 35.3656V4.8094C-0.00105072 3.70432 0.438124 2.64462 1.21953 1.86321C2.00094 1.0818 3.06064 0.642626 4.16572 0.642212H45.8329C46.938 0.642626 47.9977 1.0818 48.7791 1.86321C49.5605 2.64462 49.9997 3.70432 50.0001 4.8094V4.8094ZM5.55635 16.9266C5.55635 23.5672 10.947 28.9485 17.5782 28.9485C19.9398 28.9417 22.248 28.2449 24.2189 26.9438C17.8907 21.7969 17.9345 12.0828 24.2189 6.9344C22.2499 5.62914 19.9405 4.93196 17.5782 4.92971C10.947 4.9219 5.55635 10.311 5.55635 16.9266V16.9266ZM25.0001 26.3719C31.1204 21.5969 31.0938 12.2922 25.0001 7.49221C18.9063 12.2922 18.8798 21.6063 25.0001 26.3719ZM12.647 32.9953C12.647 32.2406 12.1517 31.7453 11.3704 31.7188C10.9704 31.7188 10.5454 31.8406 10.2595 32.2828C10.0517 31.9266 9.69541 31.7188 9.2001 31.7188C9.02012 31.716 8.84218 31.7573 8.68179 31.839C8.52139 31.9207 8.38339 32.0403 8.27979 32.1875V31.8063H7.56885V34.9922H8.27979C8.27979 33.3516 8.0626 32.3703 9.06104 32.3703C9.94697 32.3703 9.77354 33.2563 9.77354 34.9922H10.4595C10.4595 33.4031 10.2423 32.3703 11.2407 32.3703C12.1267 32.3703 11.9517 33.2391 11.9517 34.9922H12.6642V32.9953H12.647ZM16.5454 31.8063H15.8595V32.1875C15.7381 32.0361 15.5831 31.9149 15.4069 31.8335C15.2306 31.7522 15.0379 31.7129 14.8438 31.7188C13.9501 31.7188 13.2642 32.4313 13.2642 33.3938C13.2642 34.3656 13.9501 35.0688 14.8438 35.0688C15.2954 35.0688 15.6251 34.9031 15.8595 34.6V35H16.5454V31.8063ZM20.061 34.0281C20.061 32.7266 18.0735 33.3156 18.0735 32.7078C18.0735 32.2125 19.1064 32.2922 19.6798 32.6125L19.9657 32.0485C19.1501 31.5188 17.3439 31.5281 17.3439 32.761C17.3439 34.0016 19.3313 33.4813 19.3313 34.0625C19.3313 34.6094 18.1595 34.5656 17.5345 34.1313L17.2313 34.6781C18.2032 35.3375 20.061 35.1985 20.061 34.0266V34.0281ZM23.1345 34.8344L22.9439 34.2438C22.6142 34.425 21.8845 34.625 21.8845 33.8875V32.4469H23.022V31.8047H21.8845V30.8328H21.172V31.8047H20.5126V32.4391H21.172V33.8891C21.172 35.4172 22.6735 35.1391 23.1345 34.8344V34.8344ZM24.2876 33.6719H26.6751C26.6751 32.2656 26.0329 31.7094 25.1642 31.7094C24.2438 31.7094 23.5845 32.3953 23.5845 33.3844C23.5845 35.1641 25.547 35.4594 26.5188 34.6172L26.1892 34.0969C25.5126 34.6531 24.4876 34.6 24.2876 33.6719V33.6719ZM29.4188 31.8063C29.0204 31.6328 28.4126 31.65 28.1001 32.1875V31.8063H27.3876V34.9922H28.1001V33.1953C28.1001 32.1875 28.9251 32.3188 29.211 32.4656L29.4188 31.8063ZM30.3392 33.3938C30.3392 32.4031 31.347 32.0828 32.136 32.6641L32.4657 32.1C31.4579 31.311 29.6267 31.7438 29.6267 33.4016C29.6267 35.1203 31.5704 35.4672 32.4657 34.7031L32.136 34.1391C31.3376 34.7031 30.3392 34.3656 30.3392 33.3922V33.3938ZM36.1282 31.8063H35.4157V32.1875C34.6954 31.2328 32.8204 31.7719 32.8204 33.3938C32.8204 35.061 34.7642 35.5375 35.4157 34.6V35H36.1282V31.8063ZM39.0532 31.8063C38.8454 31.7016 38.0985 31.5547 37.7345 32.1875V31.8063H37.0485V34.9922H37.7345V33.1953C37.7345 32.2406 38.5157 32.3016 38.8454 32.4656L39.0532 31.8063ZM42.5517 30.5125H41.8657V32.1875C41.1532 31.2422 39.2704 31.7453 39.2704 33.3938C39.2704 35.0781 41.2235 35.5281 41.8657 34.6V35H42.5517V30.5125ZM43.2126 23.9938V24.3938H43.2814V23.9938H43.4454V23.925H43.0454V23.9938H43.2126ZM43.7845 34.7391C43.7845 34.6953 43.7845 34.6438 43.7595 34.6C43.7329 34.5735 43.7157 34.5313 43.6907 34.5047C43.6657 34.4781 43.622 34.461 43.5954 34.436C43.5517 34.436 43.5001 34.4094 43.4564 34.4094C43.4298 34.4094 43.3876 34.436 43.3345 34.436C43.3002 34.4552 43.2682 34.4783 43.2392 34.5047C43.1954 34.5297 43.1704 34.5735 43.1704 34.6C43.1438 34.6438 43.1438 34.6953 43.1438 34.7391C43.1438 34.7656 43.1438 34.8078 43.1704 34.861C43.1704 34.8875 43.197 34.9297 43.2392 34.9563C43.2655 34.9859 43.2981 35.0093 43.3345 35.025C43.3782 35.05 43.4298 35.05 43.4564 35.05C43.5001 35.05 43.5517 35.05 43.5954 35.025C43.622 34.9985 43.6642 34.9813 43.6907 34.9563C43.7173 34.9313 43.7345 34.8875 43.7595 34.861C43.7845 34.8094 43.7845 34.7656 43.7845 34.7391ZM44.0626 23.9156H43.9407L43.8017 24.2188L43.6626 23.9156H43.5407V24.3844H43.6095V24.0281L43.7485 24.3313H43.8438L43.9657 24.0281V24.3844H44.061L44.0626 23.9156ZM44.4439 16.9266C44.4439 10.311 39.0532 4.9219 32.422 4.9219C30.0602 4.92782 27.7518 5.62468 25.7813 6.92659C32.0407 12.075 32.136 21.8141 25.7813 26.936C27.7513 28.239 30.0601 28.9359 32.422 28.9406C39.0532 28.95 44.4439 23.5672 44.4439 16.9266Z" fill="black"/>
</svg>
