<svg width="20" height="30" viewBox="0 0 20 30" fill="none" xmlns="http://www.w3.org/2000/svg">
<path d="M17.304 19.6666L14.6666 28.3333H5.33331L2.69531 19.6666M2.69531 10.3333L5.33331 1.66663H14.6666L17.304 10.3333" stroke="black" stroke-width="2.66667" stroke-linecap="round" stroke-linejoin="round"/>
<path d="M18.6667 14.9999C18.6667 16.7179 18.1667 18.3199 17.304 19.6666C16.5208 20.8934 15.441 21.903 14.1644 22.6022C12.8877 23.3013 11.4555 23.6674 9.99999 23.6666C8.54448 23.6674 7.11224 23.3013 5.83563 22.6022C4.55902 21.903 3.47921 20.8934 2.69599 19.6666C1.80378 18.2738 1.33077 16.6539 1.33332 14.9999C1.33332 13.2819 1.83332 11.6799 2.69599 10.3333C3.47921 9.10643 4.55902 8.09681 5.83563 7.39768C7.11224 6.69855 8.54448 6.33247 9.99999 6.33325C11.4555 6.33247 12.8877 6.69855 14.1644 7.39768C15.441 8.09681 16.5208 9.10643 17.304 10.3333C18.1962 11.726 18.6692 13.3459 18.6667 14.9999V14.9999Z" stroke="black" stroke-width="2.66667" stroke-linecap="round" stroke-linejoin="round"/>
<path d="M10 10.3333V14.9999L12.6667 17.6666" stroke="black" stroke-width="2.66667" stroke-linecap="round" stroke-linejoin="round"/>
</svg>
