<svg width="50" height="40" viewBox="0 0 50 40" fill="none" xmlns="http://www.w3.org/2000/svg">
<path d="M16.172 20.1906C16.172 21.25 15.3298 22.0562 14.2626 22.0562C13.4642 22.0562 12.8735 21.6047 12.8735 20.7547C12.8735 19.6953 13.6985 18.8453 14.7579 18.8453C15.5657 18.8453 16.1735 19.3406 16.1735 20.1906H16.172ZM6.9876 15.9812H6.57979C6.4501 15.9812 6.31885 16.0687 6.30166 16.2156L5.92822 18.5344L6.64072 18.5078C7.59541 18.5078 8.33291 18.3781 8.50635 17.275C8.70635 16.1109 7.96885 15.9812 6.9876 15.9812V15.9812ZM31.6407 15.9812H31.2501C31.0938 15.9812 30.9892 16.0687 30.972 16.2156L30.6079 18.5344L31.3017 18.5078C32.4298 18.5078 33.211 18.2469 33.211 16.9453C33.2017 16.025 32.3782 15.9812 31.6392 15.9812H31.6407ZM50.0001 4.72187V35.2781C49.9997 36.3832 49.5605 37.4429 48.7791 38.2243C47.9977 39.0057 46.938 39.4449 45.8329 39.4453H4.16572C3.06064 39.4449 2.00094 39.0057 1.21953 38.2243C0.438124 37.4429 -0.00105072 36.3832 -0.00146484 35.2781V4.72187C-0.00105072 3.6168 0.438124 2.5571 1.21953 1.77569C2.00094 0.994276 3.06064 0.555102 4.16572 0.554688H45.8329C46.938 0.555102 47.9977 0.994276 48.7791 1.77569C49.5605 2.5571 49.9997 3.6168 50.0001 4.72187V4.72187ZM11.1376 16.475C11.1376 14.6516 9.73135 14.0437 8.1251 14.0437H4.65322C4.54107 14.0446 4.43313 14.0866 4.34989 14.1618C4.26665 14.237 4.21391 14.3401 4.20166 14.4516L2.77822 23.3141C2.75166 23.4875 2.88291 23.6609 3.05635 23.6609H4.70635C4.94072 23.6609 5.15791 23.4094 5.18447 23.1656L5.5751 20.8562C5.6626 20.2312 6.72041 20.4484 7.1376 20.4484C9.62041 20.4484 11.1392 18.9734 11.1392 16.4734L11.1376 16.475ZM18.447 17.2391H16.797C16.4673 17.2391 16.4501 17.7172 16.4329 17.9516C15.9298 17.2141 15.2001 17.0828 14.3751 17.0828C12.2485 17.0828 10.6251 18.9484 10.6251 21.0062C10.6251 22.6984 11.6845 23.8016 13.3767 23.8016C14.1579 23.8016 15.1298 23.3766 15.6767 22.7687C15.6262 22.9443 15.5968 23.1253 15.5892 23.3078C15.5892 23.5078 15.6767 23.6547 15.8673 23.6547H17.361C17.5954 23.6547 17.7954 23.4031 17.8392 23.1594L18.7251 17.5781C18.7517 17.4125 18.6204 17.2391 18.447 17.2391V17.2391ZM21.9626 25.7375L27.4923 17.6984C27.536 17.6547 27.536 17.6109 27.536 17.5516C27.536 17.4047 27.4063 17.2484 27.2579 17.2484H25.5907C25.5131 17.2515 25.4374 17.2727 25.3695 17.3105C25.3017 17.3482 25.2436 17.4013 25.2001 17.4656L22.9001 20.8516L21.9454 17.5969C21.9095 17.4979 21.8448 17.4119 21.7596 17.3501C21.6743 17.2882 21.5725 17.2534 21.4673 17.25H19.8438C19.6954 17.25 19.5657 17.4062 19.5657 17.5531C19.5657 17.6578 21.2579 22.4844 21.4063 22.9437C21.172 23.2734 19.6267 25.4266 19.6267 25.6875C19.6267 25.8437 19.7564 25.9656 19.9048 25.9656H21.572C21.65 25.9605 21.7257 25.9375 21.7934 25.8985C21.8612 25.8595 21.919 25.8055 21.9626 25.7406V25.7375ZM35.7907 16.475C35.7907 14.6516 34.3845 14.0437 32.7782 14.0437H29.3313C29.2159 14.0428 29.104 14.0836 29.0162 14.1585C28.9284 14.2334 28.8705 14.3374 28.8532 14.4516L27.447 23.3062C27.4298 23.4797 27.5595 23.6531 27.7251 23.6531H29.5048C29.6782 23.6531 29.8079 23.5234 29.8517 23.375L30.2423 20.8578C30.3298 20.2328 31.3892 20.45 31.8048 20.45C34.2704 20.45 35.7892 18.975 35.7892 16.475H35.7907ZM43.0985 17.2391H41.4485C41.1189 17.2391 41.1017 17.7172 41.0751 17.9516C40.597 17.2141 39.8595 17.0828 39.0173 17.0828C36.8907 17.0828 35.2673 18.9484 35.2673 21.0062C35.2673 22.6984 36.3267 23.8016 38.0189 23.8016C38.8267 23.8016 39.7985 23.3766 40.3189 22.7687C40.2923 22.8984 40.2313 23.1766 40.2313 23.3078C40.2313 23.5078 40.3189 23.6547 40.5095 23.6547H42.011C42.2454 23.6547 42.4454 23.4031 42.4892 23.1594L43.3751 17.5781C43.4017 17.4125 43.2704 17.2391 43.097 17.2391H43.0985ZM47.222 14.3484C47.222 14.175 47.0923 14.0453 46.9439 14.0453H45.3376C45.2079 14.0453 45.0767 14.15 45.0595 14.2797L43.6532 23.3078L43.6282 23.3516C43.6282 23.5078 43.7579 23.6547 43.9313 23.6547H45.3642C45.5814 23.6547 45.7985 23.4031 45.8157 23.1594L47.222 14.375V14.3484ZM39.4095 18.8453C38.3501 18.8453 37.5251 19.6875 37.5251 20.7547C37.5251 21.5969 38.1329 22.0562 38.9314 22.0562C39.9735 22.0562 40.8157 21.2578 40.8157 20.1906C40.8251 19.3406 40.2173 18.8453 39.4095 18.8453V18.8453Z" fill="black"/>
</svg>
