<svg width="18" height="30" viewBox="0 0 18 30" fill="none" xmlns="http://www.w3.org/2000/svg">
<path d="M5.66669 8.33329V2.99996C5.66669 2.64634 5.80716 2.3072 6.05721 2.05715C6.30726 1.8071 6.6464 1.66663 7.00002 1.66663H11C11.3536 1.66663 11.6928 1.8071 11.9428 2.05715C12.1929 2.3072 12.3334 2.64634 12.3334 2.99996V8.33329M12.3334 21.6666V27C12.3334 27.3536 12.1929 27.6927 11.9428 27.9428C11.6928 28.1928 11.3536 28.3333 11 28.3333H7.00002C6.6464 28.3333 6.30726 28.1928 6.05721 27.9428C5.80716 27.6927 5.66669 27.3536 5.66669 27V21.6666" stroke="black" stroke-width="2.66667" stroke-linecap="round"/>
<path d="M9.00002 22.3333C13.0501 22.3333 16.3334 19.05 16.3334 15C16.3334 10.9499 13.0501 7.66663 9.00002 7.66663C4.94993 7.66663 1.66669 10.9499 1.66669 15C1.66669 19.05 4.94993 22.3333 9.00002 22.3333Z" stroke="black" stroke-width="2.66667"/>
<path d="M7 15.6667H9.66667M9.66667 13V15.6667" stroke="black" stroke-width="2.66667" stroke-linecap="round" stroke-linejoin="round"/>
</svg>
