<svg width="50" height="40" viewBox="0 0 50 40" fill="none" xmlns="http://www.w3.org/2000/svg">
<path d="M26.2329 16.7359C26.2329 18.2297 25.322 19.0891 23.7157 19.0891H21.6063V14.3844H23.7251C25.322 14.3844 26.2329 15.2344 26.2329 16.7359ZM30.3563 22.1703C30.3563 22.8906 30.9813 23.3594 31.9626 23.3594C33.2126 23.3594 34.1501 22.5703 34.1501 21.4578V20.7891L32.1095 20.9187C30.9548 20.9969 30.3563 21.4219 30.3563 22.1687V22.1703ZM50.0001 4.63594V35.1922C49.9997 36.2973 49.5605 37.357 48.7791 38.1384C47.9977 38.9198 46.938 39.359 45.8329 39.3594H4.16572C3.06064 39.359 2.00094 38.9198 1.21953 38.1384C0.438124 37.357 -0.00105072 36.2973 -0.00146484 35.1922V4.63594C-0.00105072 3.53086 0.438124 2.47116 1.21953 1.68975C2.00094 0.908339 3.06064 0.469164 4.16572 0.46875H45.8329C46.938 0.469164 47.9977 0.908339 48.7791 1.68975C49.5605 2.47116 49.9997 3.53086 50.0001 4.63594ZM11.0938 14.8953C11.8235 14.9562 12.5517 14.5312 13.0126 13.9922C13.4642 13.4359 13.7595 12.6906 13.6813 11.9344C13.0392 11.9609 12.2407 12.3594 11.7798 12.9156C11.3626 13.3937 11.0079 14.1656 11.0938 14.8953ZM16.3548 21.3625C16.3376 21.3453 14.6532 20.7031 14.636 18.7578C14.6188 17.1344 15.9642 16.3531 16.0251 16.3094C15.261 15.1812 14.0798 15.0594 13.672 15.0328C12.6126 14.9719 11.7095 15.6312 11.2063 15.6312C10.6938 15.6312 9.92979 15.0578 9.09697 15.0766C8.55325 15.091 8.02279 15.2476 7.5584 15.5308C7.09402 15.814 6.7119 16.2139 6.4501 16.6906C5.3126 18.6531 6.15479 21.5516 7.25791 23.1484C7.79541 23.9375 8.44697 24.8063 9.29854 24.7719C10.1048 24.7375 10.4267 24.2516 11.3985 24.2516C12.3798 24.2516 12.6579 24.7719 13.5079 24.7641C14.3939 24.7469 14.9407 23.975 15.4876 23.1844C16.086 22.2812 16.3376 21.4141 16.3563 21.3609L16.3548 21.3625ZM28.1079 16.7281C28.1079 14.4187 26.5017 12.8391 24.2095 12.8391H19.7657V24.6797H21.6063V20.6344H24.1501C26.4767 20.6344 28.1079 19.0375 28.1079 16.7281ZM35.9204 18.7844C35.9204 17.075 34.5485 15.9719 32.4485 15.9719C30.4954 15.9719 29.0548 17.0922 29.0017 18.6187H30.6595C30.7985 17.8891 31.4751 17.4125 32.3954 17.4125C33.5235 17.4125 34.1485 17.9328 34.1485 18.9062V19.5578L31.8563 19.6969C29.7204 19.8266 28.5673 20.7047 28.5673 22.2234C28.5673 23.7594 29.7563 24.775 31.4657 24.775C32.6204 24.775 33.6876 24.1937 34.1735 23.2641H34.2079V24.6875H35.9095V18.7844H35.9204ZM44.7923 16.0844H42.9267L40.7657 23.0812H40.7313L38.5704 16.0844H36.6345L39.7501 24.7047L39.586 25.225C39.3079 26.1109 38.8485 26.4578 38.0329 26.4578C37.853 26.4545 37.6732 26.4456 37.4939 26.4312V27.8547C37.5985 27.8891 38.0579 27.8984 38.197 27.8984C39.9938 27.8984 40.836 27.2125 41.5735 25.1375L44.7923 16.0844Z" fill="black"/>
</svg>
