<svg width="17" height="17" viewBox="0 0 17 17" fill="none" xmlns="http://www.w3.org/2000/svg">
<path fill-rule="evenodd" clip-rule="evenodd" d="M15.1111 7.55556C15.5877 7.5554 16.0466 7.73538 16.3961 8.05941C16.7455 8.38344 16.9595 8.82758 16.9953 9.30278L17 9.44444V15.1111C17.0002 15.5877 16.8202 16.0466 16.4961 16.3961C16.1721 16.7455 15.728 16.9595 15.2528 16.9953L15.1111 17H11.3333C10.8568 17.0002 10.3978 16.8202 10.0484 16.4961C9.69894 16.1721 9.48491 15.728 9.44917 15.2528L9.44444 15.1111V9.44444C9.44429 8.9679 9.62427 8.50891 9.9483 8.15948C10.2723 7.81006 10.7165 7.59602 11.1917 7.56028L11.3333 7.55556H15.1111ZM5.66667 11.3333C6.16763 11.3333 6.64808 11.5323 7.00231 11.8866C7.35655 12.2408 7.55556 12.7213 7.55556 13.2222V15.1111C7.55556 15.6121 7.35655 16.0925 7.00231 16.4468C6.64808 16.801 6.16763 17 5.66667 17H1.88889C1.38792 17 0.907478 16.801 0.553243 16.4468C0.199007 16.0925 0 15.6121 0 15.1111V13.2222C0 12.7213 0.199007 12.2408 0.553243 11.8866C0.907478 11.5323 1.38792 11.3333 1.88889 11.3333H5.66667ZM15.1111 9.44444H11.3333V15.1111H15.1111V9.44444ZM5.66667 13.2222H1.88889V15.1111H5.66667V13.2222ZM5.66667 0C6.16763 0 6.64808 0.199007 7.00231 0.553243C7.35655 0.907478 7.55556 1.38792 7.55556 1.88889V7.55556C7.55556 8.05652 7.35655 8.53697 7.00231 8.8912C6.64808 9.24544 6.16763 9.44444 5.66667 9.44444H1.88889C1.38792 9.44444 0.907478 9.24544 0.553243 8.8912C0.199007 8.53697 0 8.05652 0 7.55556V1.88889C0 1.38792 0.199007 0.907478 0.553243 0.553243C0.907478 0.199007 1.38792 0 1.88889 0H5.66667ZM5.66667 1.88889H1.88889V7.55556H5.66667V1.88889ZM15.1111 0C15.6121 0 16.0925 0.199007 16.4468 0.553243C16.801 0.907478 17 1.38792 17 1.88889V3.77778C17 4.27874 16.801 4.75919 16.4468 5.11342C16.0925 5.46766 15.6121 5.66667 15.1111 5.66667H11.3333C10.8324 5.66667 10.3519 5.46766 9.99769 5.11342C9.64345 4.75919 9.44444 4.27874 9.44444 3.77778V1.88889C9.44444 1.38792 9.64345 0.907478 9.99769 0.553243C10.3519 0.199007 10.8324 0 11.3333 0H15.1111ZM15.1111 1.88889H11.3333V3.77778H15.1111V1.88889Z" fill="black"/>
</svg>
