<svg width="50" height="20" viewBox="0 0 50 20" fill="none" xmlns="http://www.w3.org/2000/svg">
<path d="M50 4.83284L43.4735 19.4157H41.4547L43.8797 14.3125L39.5828 4.83128H41.7063L44.8156 12.0985H44.8563L47.8672 4.83128L50 4.83284ZM22.8844 9.34221V15.25H20.8328V0.667215H26.261C27.5495 0.631894 28.8042 1.08194 29.7766 1.92815C30.7375 2.71722 31.2656 3.83284 31.25 5.01253C31.2566 5.6062 31.1273 6.19352 30.8719 6.7295C30.6165 7.26547 30.2418 7.73589 29.7766 8.10471C28.8328 8.9344 27.661 9.34221 26.261 9.34221H22.8844ZM22.8766 2.46565V7.55159H26.311C27.0586 7.5784 27.7867 7.3095 28.3375 6.80315C28.8672 6.33128 29.1594 5.68753 29.1594 5.02034C29.1594 4.34534 28.8656 3.70159 28.3375 3.23753C28.0678 2.9808 27.7497 2.78023 27.4018 2.64745C27.0539 2.51468 26.6831 2.45235 26.311 2.46409L22.8766 2.46565ZM35.3594 4.83284C36.661 4.83284 37.6953 5.19847 38.4516 5.92347C39.2078 6.64847 39.5828 7.64065 39.5828 8.90159V14.9313H37.8906V13.5719H37.8172C37.0844 14.6875 36.1156 15.2485 34.9031 15.2485C33.861 15.2485 32.9985 14.9313 32.2985 14.2875C31.9607 13.9886 31.6919 13.6198 31.5106 13.2068C31.3293 12.7938 31.2399 12.3463 31.2485 11.8953C31.2485 10.886 31.6141 10.0813 32.3547 9.47815C33.0875 8.8844 34.0719 8.58284 35.3 8.58284C36.35 8.58284 37.2125 8.78596 37.8875 9.1844V8.76096C37.8897 8.45359 37.8261 8.14929 37.7011 7.86849C37.5761 7.58769 37.3924 7.33687 37.1625 7.13284C36.6994 6.69936 36.0874 6.46049 35.4531 6.46565C34.4688 6.46565 33.6875 6.8969 33.1094 7.7594L31.5547 6.75003C32.4094 5.4719 33.6781 4.82972 35.3547 4.82972L35.3594 4.83284ZM33.0735 11.9375C33.07 12.1691 33.1212 12.3982 33.223 12.6062C33.3249 12.8141 33.4744 12.9951 33.6594 13.1344C34.05 13.4516 34.5391 13.6235 35.0344 13.6141C35.775 13.6141 36.4906 13.3047 37.0203 12.7594C37.5813 12.2391 37.9 11.5063 37.9 10.7407C37.3469 10.2844 36.5813 10.0563 35.5969 10.0563C34.8719 10.0563 34.2781 10.236 33.7985 10.5938C33.3188 10.9594 33.0735 11.4 33.0735 11.936V11.9375ZM8.5047 0.667215C10.6085 0.641842 12.6428 1.41905 14.1938 2.84065L11.7688 5.21722C10.8829 4.39534 9.71288 3.94895 8.5047 3.9719C7.45037 3.97706 6.42384 4.31057 5.56781 4.92607C4.71177 5.54157 4.06875 6.40847 3.72814 7.40628C3.37025 8.43971 3.37025 9.56347 3.72814 10.5969C4.06875 11.5947 4.71177 12.4616 5.56781 13.0771C6.42384 13.6926 7.45037 14.0261 8.5047 14.0313C9.65158 14.0313 10.6375 13.7469 11.4016 13.2422C11.8412 12.956 12.2179 12.5832 12.5088 12.1467C12.7997 11.7102 12.9987 11.219 13.0938 10.7032H8.50314V7.4969H16.5188C16.6172 8.05784 16.6656 8.62034 16.6656 9.18909C16.6656 11.7282 15.7375 13.8766 14.1344 15.325C12.7266 16.5953 10.7985 17.3344 8.50314 17.3344C6.93644 17.3424 5.39788 16.9181 4.05674 16.1082C2.7156 15.2982 1.62384 14.1341 0.901578 12.7438C0.307749 11.5852 -0.00195313 10.3019 -0.00195312 9.00003C-0.00195313 7.69811 0.307749 6.41487 0.901578 5.25628C1.62298 3.86728 2.71324 2.70396 4.0526 1.89411C5.39196 1.08427 6.92861 0.659217 8.49377 0.665654L8.5047 0.667215Z" fill="black"/>
</svg>
