<svg width="30" height="24" viewBox="0 0 30 24" fill="none" xmlns="http://www.w3.org/2000/svg">
<path d="M4.64104 21.502C4.67222 21.6335 4.72966 21.7573 4.80992 21.866C4.89018 21.9746 4.9916 22.0659 5.10807 22.1344C5.22453 22.2029 5.35365 22.247 5.48764 22.2643C5.62163 22.2816 5.75772 22.2715 5.88774 22.2348C11.8489 20.5889 18.1445 20.5883 24.106 22.2331C24.236 22.2698 24.372 22.2798 24.5059 22.2625C24.6399 22.2453 24.7689 22.2011 24.8854 22.1327C25.0018 22.0643 25.1032 21.973 25.1835 21.8644C25.2637 21.7558 25.3212 21.6321 25.3524 21.5007L28.5385 7.96106C28.5811 7.77981 28.5723 7.59024 28.5131 7.41372C28.4538 7.23719 28.3464 7.08072 28.203 6.96193C28.0596 6.84314 27.8859 6.76674 27.7015 6.74134C27.517 6.71595 27.3291 6.74256 27.1589 6.81819L20.836 9.6284C20.6077 9.72987 20.3496 9.7422 20.1127 9.66296C19.8757 9.58372 19.677 9.41864 19.5557 9.20023L15.8741 2.57344C15.7875 2.41755 15.6608 2.28765 15.5071 2.19721C15.3534 2.10677 15.1783 2.05908 15 2.05908C14.8216 2.05908 14.6465 2.10677 14.4928 2.19721C14.3391 2.28765 14.2124 2.41755 14.1258 2.57344L10.4443 9.20023C10.3229 9.41864 10.1242 9.58371 9.88727 9.66296C9.65032 9.7422 9.39229 9.72987 9.16397 9.6284L2.84004 6.81776C2.66991 6.74215 2.48206 6.71553 2.29762 6.74091C2.11318 6.76628 1.93949 6.84263 1.7961 6.96137C1.65271 7.08011 1.54532 7.23652 1.486 7.41299C1.42669 7.58947 1.41782 7.77899 1.46039 7.96023L4.64104 21.502Z" stroke="black" stroke-width="2.67" stroke-linecap="round" stroke-linejoin="round"/>
</svg>
