<svg width="10" height="10" viewBox="0 0 28 28" fill="currentColor" xmlns="http://www.w3.org/2000/svg">
<path fill-rule="evenodd" clip-rule="evenodd" d="M4.66669 3.33329H23.3334C23.687 3.33329 24.0261 3.47377 24.2762 3.72382C24.5262 3.97387 24.6667 4.313 24.6667 4.66663V23.3333C24.6667 23.6869 24.5262 24.0261 24.2762 24.2761C24.0261 24.5262 23.687 24.6666 23.3334 24.6666H4.66669C4.31307 24.6666 3.97393 24.5262 3.72388 24.2761C3.47383 24.0261 3.33335 23.6869 3.33335 23.3333V4.66663C3.33335 4.313 3.47383 3.97387 3.72388 3.72382C3.97393 3.47377 4.31307 3.33329 4.66669 3.33329ZM0.666687 4.66663C0.666687 3.60576 1.08811 2.58834 1.83826 1.8382C2.58841 1.08805 3.60582 0.666626 4.66669 0.666626H23.3334C24.3942 0.666626 25.4116 1.08805 26.1618 1.8382C26.9119 2.58834 27.3334 3.60576 27.3334 4.66663V23.3333C27.3334 24.3942 26.9119 25.4116 26.1618 26.1617C25.4116 26.9119 24.3942 27.3333 23.3334 27.3333H4.66669C3.60582 27.3333 2.58841 26.9119 1.83826 26.1617C1.08811 25.4116 0.666687 24.3942 0.666687 23.3333V4.66663ZM14 14C10.3187 14 7.33335 10.4186 7.33335 5.99996H10C10 9.42129 12.2267 11.3333 14 11.3333C15.7734 11.3333 18 9.42129 18 5.99996H20.6667C20.6667 10.4186 17.6814 14 14 14Z" fill="black"/>
</svg>
