<svg width="25" height="25" viewBox="0 0 25 25" fill="none" xmlns="http://www.w3.org/2000/svg">
<path d="M19.1712 7.47003C19.8966 7.47003 20.5923 7.18188 21.1052 6.66897C21.6181 6.15605 21.9063 5.46039 21.9063 4.73502C21.9063 4.00965 21.6181 3.31398 21.1052 2.80107C20.5923 2.28815 19.8966 2 19.1712 2C18.4459 2 17.7502 2.28815 17.2373 2.80107C16.7244 3.31398 16.4362 4.00965 16.4362 4.73502C16.4362 5.46039 16.7244 6.15605 17.2373 6.66897C17.7502 7.18188 18.4459 7.47003 19.1712 7.47003Z" stroke="#030303" stroke-width="2.66667"/>
<path d="M6.04315 8.43817L10.4208 6.92188L16.4362 9.7931L10.4208 14.2769L16.4362 18.2372L12.6116 23.332M18.7993 11.1037L20.2663 11.9018L23.5473 8.81888M8.69557 16.5201L7.07097 18.66L1.66931 21.6904" stroke="#030303" stroke-width="2.66667" stroke-linecap="round" stroke-linejoin="round"/>
</svg>
