<svg width="50" height="40" viewBox="0 0 50 40" fill="none" xmlns="http://www.w3.org/2000/svg">
<path d="M40.8079 17.8562C40.8079 17.8562 41.4673 21.0859 41.6157 21.7625H38.7173L40.1063 17.9859C40.0892 18.0125 40.3923 17.1953 40.5657 16.6922L40.8079 17.8562ZM50.0001 4.72187V35.2781C49.9997 36.3832 49.5605 37.4429 48.7791 38.2243C47.9977 39.0057 46.938 39.4449 45.8329 39.4453H4.16572C3.06064 39.4449 2.00094 39.0057 1.21953 38.2243C0.438124 37.4429 -0.00105072 36.3832 -0.00146484 35.2781V4.72187C-0.00105072 3.6168 0.438124 2.5571 1.21953 1.77569C2.00094 0.994276 3.06064 0.555102 4.16572 0.554688H45.8329C46.938 0.555102 47.9977 0.994276 48.7791 1.77569C49.5605 2.5571 49.9997 3.6168 50.0001 4.72187V4.72187ZM13.2376 26.5281L18.7235 13.0562H15.0345L11.6235 22.2578L11.2501 20.3922L10.0345 14.1937C9.83447 13.3344 9.21885 13.0906 8.45479 13.0562H2.83916L2.77822 13.325C4.06428 13.6405 5.2979 14.1405 6.44072 14.8094L9.54854 26.5281H13.2376ZM21.4329 26.5453L23.6204 13.0562H20.1313L17.9532 26.5453H21.4329ZM33.5767 22.1359C33.5938 20.6 32.6564 19.4281 30.6517 18.4641C29.4282 17.8469 28.6814 17.4312 28.6814 16.7969C28.6985 16.2234 29.3157 15.6328 30.686 15.6328C31.5786 15.6076 32.4654 15.7828 33.2813 16.1453L33.5938 16.2922L34.072 13.375C33.0745 12.9931 32.0151 12.7987 30.947 12.8016C27.5001 12.8016 25.0782 14.6422 25.061 17.2625C25.0345 19.1984 26.797 20.275 28.1173 20.925C29.4626 21.5844 29.9235 22.0187 29.9235 22.6C29.9063 23.5031 28.8298 23.9187 27.8313 23.9187C26.4423 23.9187 25.6954 23.7016 24.5579 23.1984L24.0985 22.9812L23.6126 26.0109C24.4282 26.3844 25.9392 26.7141 27.5017 26.7312C31.1642 26.7391 33.5517 24.925 33.5782 22.1312L33.5767 22.1359ZM45.8329 26.5453L43.0204 13.0562H40.3204C39.4876 13.0562 38.8532 13.3 38.497 14.1766L33.3142 26.5469H36.9767C36.9767 26.5469 37.5751 24.8797 37.7063 24.525H42.186C42.2907 25.0031 42.6032 26.5469 42.6032 26.5469L45.8329 26.5453Z" fill="black"/>
</svg>
